<svg fill="none" height="100%" width="100%" viewBox="0 0 300 300" xmlns:xlink="http://www.w3.org/1999/xlink" xmlns="http://www.w3.org/2000/svg"><defs><clipPath id="i0"><rect height="2000" width="2000" y="0" x="0" /></clipPath><g id="i1"><g transform="matrix(1,0,0,1,984.211,99.72)" id="i2"><g id="i3"><path stroke-miterlimit="10" stroke-width="7" stroke="#2f3542" d="M208.289,466.848C208.289,466.848,3.5,466.848,3.5,466.848" /></g><g id="i4"><path stroke-miterlimit="10" stroke-width="7" stroke="#2f3542" d="M208.289,342.848C208.289,342.848,99.319,342.848,99.319,342.848" /></g><g id="i5"><path stroke-miterlimit="10" stroke-width="7" stroke="#2f3542" d="M99.319,149.943C99.319,149.943,99.319,608.094,99.319,608.094" /></g><g id="i6"><path stroke-miterlimit="10" stroke-width="7" stroke="#2f3542" d="M208.289,401.656C208.289,401.656,284.807,401.656,284.807,401.656" /></g><g id="i7"><path stroke-miterlimit="10" stroke-width="7" stroke="#2f3542" d="M284.807,254.203C284.807,254.203,284.825,930.903,284.825,930.903" /></g><g id="i8" transform="matrix(1,0,0,1,272.596,149.728)"><path stroke-miterlimit="10" stroke-width="7" stroke="#2f3542" d="M107.971,8.252C107.971,8.252,39.254,-63.89,39.254,-63.89C39.254,-63.89,-107.971,63.89,-107.971,63.89" /></g><g id="i9" transform="matrix(1,0,0,1,153.897,203.468)"><path stroke-miterlimit="10" stroke-width="7" stroke="#2f3542" d="M-82.247,-77.823C-82.247,-77.823,82.247,77.823,82.247,77.823" /></g><g id="i10"><path stroke-miterlimit="10" stroke-width="7" stroke="#2f3542" d="M370.809,166.312C370.809,166.312,370.809,326.963,370.809,326.963" /></g><g id="i11"><path stroke-miterlimit="10" stroke-width="7" stroke="#2f3542" d="M284.807,323.377C284.807,323.377,467.221,323.377,467.221,323.377" /></g><g id="i12"><path stroke-miterlimit="10" stroke-width="7" stroke="#2f3542" d="M284.807,573.427C284.807,573.427,447.749,573.427,447.749,573.427" /></g><g id="i13" transform="matrix(1,0,0,1,318.133,387.202)"><path stroke-miterlimit="10" stroke-width="47" stroke="#2f3542" d="M109.844,-269.702C109.844,-269.702,-109.844,-82.129,-109.844,-82.129C-109.844,-82.129,-109.844,269.702,-109.844,269.702" /></g></g><g transform="matrix(1,0,0,1,773.711,622.22)" id="i14"><g id="i3"><path stroke-miterlimit="10" stroke-width="7" stroke="#2f3542" d="M208.289,466.848C208.289,466.848,3.5,466.848,3.5,466.848" /></g><g id="i4"><path stroke-miterlimit="10" stroke-width="7" stroke="#2f3542" d="M208.289,342.848C208.289,342.848,99.319,342.848,99.319,342.848" /></g><g id="i5"><path stroke-miterlimit="10" stroke-width="7" stroke="#2f3542" d="M99.319,149.943C99.319,149.943,99.319,608.094,99.319,608.094" /></g><g id="i6"><path stroke-miterlimit="10" stroke-width="7" stroke="#2f3542" d="M208.289,401.656C208.289,401.656,284.807,401.656,284.807,401.656" /></g><g id="i7"><path stroke-miterlimit="10" stroke-width="7" stroke="#2f3542" d="M284.807,254.203C284.807,254.203,284.807,656.903,284.807,656.903" /></g><g id="i8" transform="matrix(1,0,0,1,272.596,149.728)"><path stroke-miterlimit="10" stroke-width="7" stroke="#2f3542" d="M107.971,8.252C107.971,8.252,39.254,-63.89,39.254,-63.89C39.254,-63.89,-107.971,63.89,-107.971,63.89" /></g><g id="i9" transform="matrix(1,0,0,1,153.897,203.468)"><path stroke-miterlimit="10" stroke-width="7" stroke="#2f3542" d="M-82.247,-77.823C-82.247,-77.823,82.247,77.823,82.247,77.823" /></g><g id="i10"><path stroke-miterlimit="10" stroke-width="7" stroke="#2f3542" d="M370.809,166.312C370.809,166.312,370.809,326.963,370.809,326.963" /></g><g id="i11"><path stroke-miterlimit="10" stroke-width="7" stroke="#2f3542" d="M284.807,323.377C284.807,323.377,467.221,323.377,467.221,323.377" /></g><g id="i12"><path stroke-miterlimit="10" stroke-width="7" stroke="#2f3542" d="M284.807,573.427C284.807,573.427,447.749,573.427,447.749,573.427" /></g><g id="i13" transform="matrix(1,0,0,1,318.133,387.202)"><path stroke-miterlimit="10" stroke-width="47" stroke="#2f3542" d="M109.844,-269.702C109.844,-269.702,-109.844,-82.129,-109.844,-82.129C-109.844,-82.129,-109.844,269.702,-109.844,269.702" /></g></g></g><radialGradient id="i15" gradientUnits="userSpaceOnUse" spreadMethod="pad" cx="0" cy="0" r="151.001" fy="0" fx="0"><stop stop-opacity="0" offset="31.8%" stop-color="#ffffff" /><stop stop-opacity="0" offset="32.5%" stop-color="#ffffff" /><stop stop-opacity="0.477" offset="75.4%" stop-color="#ffffff" /><stop stop-opacity="0.5" offset="77.5%" stop-color="#ffffff" /><stop offset="100%" stop-color="#ffffff" /></radialGradient></defs><g opacity="0.2" id="i16"><g transform="translate(170.5,15)"><animateTransform repeatCount="indefinite" type="translate" attributeName="transform" dur="4.017s" begin="0s" calcMode="spline" values="170.5 15; 170.5 235; -40.479 387.13; -39.75 536.75; -39.75 536.75" keyTimes="0; 0.348249; 0.759992; 0.996847; 1" keySplines="0 0 1 1; 0 0 1 1; 0 0 1 1; 0 0 1 1" fill="freeze" /><g transform="scale(1,1) translate(-1000,-1000)"><g clip-path="url(#i0)"><g transform="matrix(1,0,0,1,984.211,99.72)"><g><path stroke-miterlimit="10" stroke-width="7" stroke="#2f3542" d="M208.289,466.848C208.289,466.848,3.5,466.848,3.5,466.848" /></g><g><path stroke-miterlimit="10" stroke-width="7" stroke="#2f3542" d="M208.289,342.848C208.289,342.848,99.319,342.848,99.319,342.848" /></g><g><path stroke-miterlimit="10" stroke-width="7" stroke="#2f3542" d="M99.319,149.943C99.319,149.943,99.319,608.094,99.319,608.094" /></g><g><path stroke-miterlimit="10" stroke-width="7" stroke="#2f3542" d="M208.289,401.656C208.289,401.656,284.807,401.656,284.807,401.656" /></g><g><path stroke-miterlimit="10" stroke-width="7" stroke="#2f3542" d="M284.807,254.203C284.807,254.203,284.825,930.903,284.825,930.903" /></g><g transform="matrix(1,0,0,1,272.596,149.728)"><path stroke-miterlimit="10" stroke-width="7" stroke="#2f3542" d="M107.971,8.252C107.971,8.252,39.254,-63.89,39.254,-63.89C39.254,-63.89,-107.971,63.89,-107.971,63.89" /></g><g transform="matrix(1,0,0,1,153.897,203.468)"><path stroke-miterlimit="10" stroke-width="7" stroke="#2f3542" d="M-82.247,-77.823C-82.247,-77.823,82.247,77.823,82.247,77.823" /></g><g><path stroke-miterlimit="10" stroke-width="7" stroke="#2f3542" d="M370.809,166.312C370.809,166.312,370.809,326.963,370.809,326.963" /></g><g><path stroke-miterlimit="10" stroke-width="7" stroke="#2f3542" d="M284.807,323.377C284.807,323.377,467.221,323.377,467.221,323.377" /></g><g><path stroke-miterlimit="10" stroke-width="7" stroke="#2f3542" d="M284.807,573.427C284.807,573.427,447.749,573.427,447.749,573.427" /></g><g transform="matrix(1,0,0,1,318.133,387.202)"><path stroke-miterlimit="10" stroke-width="47" stroke="#2f3542" d="M109.844,-269.702C109.844,-269.702,-109.844,-82.129,-109.844,-82.129C-109.844,-82.129,-109.844,269.702,-109.844,269.702" /></g></g><g transform="matrix(1,0,0,1,773.711,622.22)"><g><path stroke-miterlimit="10" stroke-width="7" stroke="#2f3542" d="M208.289,466.848C208.289,466.848,3.5,466.848,3.5,466.848" /></g><g><path stroke-miterlimit="10" stroke-width="7" stroke="#2f3542" d="M208.289,342.848C208.289,342.848,99.319,342.848,99.319,342.848" /></g><g><path stroke-miterlimit="10" stroke-width="7" stroke="#2f3542" d="M99.319,149.943C99.319,149.943,99.319,608.094,99.319,608.094" /></g><g><path stroke-miterlimit="10" stroke-width="7" stroke="#2f3542" d="M208.289,401.656C208.289,401.656,284.807,401.656,284.807,401.656" /></g><g><path stroke-miterlimit="10" stroke-width="7" stroke="#2f3542" d="M284.807,254.203C284.807,254.203,284.807,656.903,284.807,656.903" /></g><g transform="matrix(1,0,0,1,272.596,149.728)"><path stroke-miterlimit="10" stroke-width="7" stroke="#2f3542" d="M107.971,8.252C107.971,8.252,39.254,-63.89,39.254,-63.89C39.254,-63.89,-107.971,63.89,-107.971,63.89" /></g><g transform="matrix(1,0,0,1,153.897,203.468)"><path stroke-miterlimit="10" stroke-width="7" stroke="#2f3542" d="M-82.247,-77.823C-82.247,-77.823,82.247,77.823,82.247,77.823" /></g><g><path stroke-miterlimit="10" stroke-width="7" stroke="#2f3542" d="M370.809,166.312C370.809,166.312,370.809,326.963,370.809,326.963" /></g><g><path stroke-miterlimit="10" stroke-width="7" stroke="#2f3542" d="M284.807,323.377C284.807,323.377,467.221,323.377,467.221,323.377" /></g><g><path stroke-miterlimit="10" stroke-width="7" stroke="#2f3542" d="M284.807,573.427C284.807,573.427,447.749,573.427,447.749,573.427" /></g><g transform="matrix(1,0,0,1,318.133,387.202)"><path stroke-miterlimit="10" stroke-width="47" stroke="#2f3542" d="M109.844,-269.702C109.844,-269.702,-109.844,-82.129,-109.844,-82.129C-109.844,-82.129,-109.844,269.702,-109.844,269.702" /></g></g></g></g></g></g><g transform="matrix(1.07,0,0,1.07,150,150)" id="g17"><g id="i18" transform="matrix(1,0,0,1,0,-1)"><rect height="300" width="302" y="-150" x="-151" stroke-width="1.5" stroke="#282828" fill="url(#i15)" /></g></g><g id="i16"><g transform="translate(170.5,15)"><animateTransform repeatCount="indefinite" type="translate" attributeName="transform" dur="4.017s" begin="0s" calcMode="spline" values="170.5 15; 170.5 235; -40.479 387.13; -39.75 536.75; -39.75 536.75" keyTimes="0; 0.348249; 0.759992; 0.996847; 1" keySplines="0 0 1 1; 0 0 1 1; 0 0 1 1; 0 0 1 1" fill="freeze" /><g transform="scale(1,1) translate(-1000,-1000)"><g id="i19"><g transform="translate(980.695,1145.924)"><animateTransform repeatCount="indefinite" type="translate" attributeName="transform" dur="4.017s" begin="0s" calcMode="spline" values="980.695 1145.924; 980.923 927.615; 1191.195 746.716; 1190.966 624.632; 1190.966 624.632" keyTimes="0; 0.348897; 0.755942; 0.996847; 1" keySplines="0 0 1 1; 0 0 1 1; 0 0 1 1; 0 0 1 1" fill="freeze" /><g transform="rotate(0)"><animateTransform repeatCount="indefinite" type="rotate" attributeName="transform" dur="4.017s" begin="0s" calcMode="spline" values="0; 0; 50; 50; 0; 0" keyTimes="0; 0.265826; 0.481805; 0.639643; 0.855631; 1" keySplines="0 0 1 1; 0.333 0 0.2 1; 0.333 0 0.667 1; 0.333 0 0.667 1; 0 0 1 1" fill="freeze" /><g transform="scale(0.56,0.56) translate(-29.857,-72.138)"><g id="i20"><g transform="translate(29.41,-10.094)"><g transform="rotate(0)"><animateTransform repeatCount="indefinite" type="rotate" attributeName="transform" dur="4.017s" begin="0s" calcMode="spline" values="0; 0; 18; 18; 0; 0; -18; -18; 0; 0" keyTimes="0; 0.244813; 0.298755; 0.356846; 0.419087; 0.618257; 0.672199; 0.730291; 0.792531; 1" keySplines="0 0 1 1; 0.333 0 0.667 1; 0.333 0 0.667 1; 0.333 0 0.667 1; 0.296 0 0.667 1; 0.333 0 0.667 1; 0.333 0 0.667 1; 0.333 0 0.667 1; 0 0 1 1" fill="freeze" /><g transform="scale(1,1) translate(-7.811,-29.353)"><g id="i12" transform="matrix(1,0,0,1,8.258,14.788)"><path fill="#2f3542" d="M0,14.538C0,14.538,0,14.538,0,14.538C-3.435,14.538,-6.22,11.753,-6.22,8.318C-6.22,8.318,-6.22,-8.317,-6.22,-8.317C-6.22,-11.753,-3.435,-14.538,0,-14.538C3.436,-14.538,6.22,-11.753,6.22,-8.317C6.22,-8.317,6.22,8.318,6.22,8.318C6.22,11.753,3.436,14.538,0,14.538Z" /></g><g id="i13" transform="matrix(1,0,0,1,8.257,28.416)"><path fill="#e75f35" d="M0.775,-15.754C0.775,-15.754,-0.773,-15.754,-0.773,-15.754C-4.768,-15.754,-8.008,-12.516,-8.008,-8.521C-8.008,-8.521,-8.008,8.585,-8.008,8.585C-8.008,12.544,-4.798,15.754,-0.838,15.754C-0.838,15.754,0.839,15.754,0.839,15.754C4.798,15.754,8.008,12.544,8.008,8.585C8.008,8.585,8.008,-8.521,8.008,-8.521C8.008,-12.516,4.77,-15.754,0.775,-15.754Z" /></g></g></g></g></g></g></g></g></g></g></g></g><g id="i16"><g transform="translate(170.5,15)"><animateTransform repeatCount="indefinite" type="translate" attributeName="transform" dur="4.017s" begin="0s" calcMode="spline" values="170.5 15; 170.5 235; -40.479 387.13; -39.75 536.75; -39.75 536.75" keyTimes="0; 0.348249; 0.759992; 0.996847; 1" keySplines="0 0 1 1; 0 0 1 1; 0 0 1 1; 0 0 1 1" fill="freeze" /><g transform="scale(1,1) translate(-1000,-1000)"><g id="i19"><g transform="translate(980.695,1145.924)"><animateTransform repeatCount="indefinite" type="translate" attributeName="transform" dur="4.017s" begin="0s" calcMode="spline" values="980.695 1145.924; 980.923 927.615; 1191.195 746.716; 1190.966 624.632; 1190.966 624.632" keyTimes="0; 0.348897; 0.755942; 0.996847; 1" keySplines="0 0 1 1; 0 0 1 1; 0 0 1 1; 0 0 1 1" fill="freeze" /><g transform="rotate(0)"><animateTransform repeatCount="indefinite" type="rotate" attributeName="transform" dur="4.017s" begin="0s" calcMode="spline" values="0; 0; 50; 50; 0; 0" keyTimes="0; 0.265826; 0.481805; 0.639643; 0.855631; 1" keySplines="0 0 1 1; 0.333 0 0.2 1; 0.333 0 0.667 1; 0.333 0 0.667 1; 0 0 1 1" fill="freeze" /><g transform="scale(0.56,0.56) translate(-29.857,-72.138)"><g id="i10" transform="matrix(1,0,0,1,29.857,109.208)"><path fill="#e75f35" d="M10.54,27.256C10.54,27.256,-10.54,27.256,-10.54,27.256C-21.07,27.256,-29.607,18.719,-29.607,8.189C-29.607,8.189,-29.607,-8.188,-29.607,-8.188C-29.607,-18.719,-21.07,-27.256,-10.54,-27.256C-10.54,-27.256,10.54,-27.256,10.54,-27.256C21.071,-27.256,29.607,-18.719,29.607,-8.188C29.607,-8.188,29.607,8.189,29.607,8.189C29.607,18.719,21.071,27.256,10.54,27.256Z" /></g><g id="i11" transform="matrix(1,0,0,1,29.858,92.581)"><path stroke-miterlimit="10" stroke-width="1" stroke="#2f3542" fill="#ffffff" d="M20.17,16.628C20.17,16.628,-20.17,16.628,-20.17,16.628C-20.17,16.628,-20.17,-16.628,-20.17,-16.628C-20.17,-16.628,20.17,-16.628,20.17,-16.628C20.17,-16.628,20.17,16.628,20.17,16.628Z" /></g><g id="i12" transform="matrix(1,0,0,1,29.857,120.229)"><path stroke-miterlimit="10" stroke-width="1" stroke="#2f3542" fill="#ffffff" d="M14.07,23.797C14.07,23.797,-14.07,23.797,-14.07,23.797C-19.948,23.797,-24.712,19.032,-24.712,13.155C-24.712,13.155,-24.712,-13.155,-24.712,-13.155C-24.712,-19.033,-19.948,-23.797,-14.07,-23.797C-14.07,-23.797,14.07,-23.797,14.07,-23.797C19.947,-23.797,24.712,-19.033,24.712,-13.155C24.712,-13.155,24.712,13.155,24.712,13.155C24.712,19.032,19.947,23.797,14.07,23.797Z" /></g><g id="i13" transform="matrix(1,0,0,1,29.858,31.144)"><path fill="#2f3542" d="M17.176,30.894C17.176,30.894,-17.176,30.894,-17.176,30.894C-17.176,30.894,-17.176,-30.894,-17.176,-30.894C-17.176,-30.894,17.176,-30.894,17.176,-30.894C17.176,-30.894,17.176,30.894,17.176,30.894Z" /></g></g></g></g></g></g></g></g><g id="i16"><g transform="translate(170.5,15)"><animateTransform repeatCount="indefinite" type="translate" attributeName="transform" dur="4.017s" begin="0s" calcMode="spline" values="170.5 15; 170.5 235; -40.479 387.13; -39.75 536.75; -39.75 536.75" keyTimes="0; 0.348249; 0.759992; 0.996847; 1" keySplines="0 0 1 1; 0 0 1 1; 0 0 1 1; 0 0 1 1" fill="freeze" /><g transform="scale(1,1) translate(-1000,-1000)"><g id="i19"><g transform="translate(980.695,1145.924)"><animateTransform repeatCount="indefinite" type="translate" attributeName="transform" dur="4.017s" begin="0s" calcMode="spline" values="980.695 1145.924; 980.923 927.615; 1191.195 746.716; 1190.966 624.632; 1190.966 624.632" keyTimes="0; 0.348897; 0.755942; 0.996847; 1" keySplines="0 0 1 1; 0 0 1 1; 0 0 1 1; 0 0 1 1" fill="freeze" /><g transform="rotate(0)"><animateTransform repeatCount="indefinite" type="rotate" attributeName="transform" dur="4.017s" begin="0s" calcMode="spline" values="0; 0; 50; 50; 0; 0" keyTimes="0; 0.265826; 0.481805; 0.639643; 0.855631; 1" keySplines="0 0 1 1; 0.333 0 0.2 1; 0.333 0 0.667 1; 0.333 0 0.667 1; 0 0 1 1" fill="freeze" /><g transform="scale(0.56,0.56) translate(-29.857,-72.138)"><g id="i21"><g transform="translate(30.055,-2.259)"><g transform="rotate(0)"><animateTransform repeatCount="indefinite" type="rotate" attributeName="transform" dur="4.017s" begin="0s" calcMode="spline" values="0; 0; 6; 6; 0; 0; -6; -6; 0; 0" keyTimes="0; 0.244813; 0.298755; 0.356846; 0.419087; 0.618257; 0.672199; 0.730291; 0.792531; 1" keySplines="0 0 1 1; 0.333 0 0.667 1; 0.333 0 0.667 1; 0.333 0 0.667 1; 0.296 0 0.667 1; 0.333 0 0.667 1; 0.333 0 0.667 1; 0.333 0 0.667 1; 0 0 1 1" fill="freeze" /><g transform="scale(1,1) translate(-61.078,-17.77)"><g id="i6" transform="matrix(1,0,0,1,20.903,20.217)"><path stroke-linejoin="round" stroke-linecap="round" stroke-width="5" stroke="#2f3542" d="M8.403,-1.777C1.03,-0.278,-3.796,0.566,-8.403,1.777" /></g><g id="i7" transform="matrix(1,0,0,1,35.445,17.219)"><path stroke-miterlimit="10" stroke-width="3" stroke="#2f3542" d="M6.139,-1.221C6.139,-1.221,0.604,-0.15,-6.139,1.221" /></g><g id="i8" transform="matrix(1,0,0,1,101.056,20.266)"><path stroke-linejoin="round" stroke-linecap="round" stroke-width="5" stroke="#2f3542" d="M-8.601,-1.826C-1.228,-0.327,3.995,0.615,8.601,1.826" /></g><g id="i9" transform="matrix(1,0,0,1,86.316,17.219)"><path stroke-miterlimit="10" stroke-width="3" stroke="#2f3542" d="M-6.139,-1.221C-6.139,-1.221,-0.604,-0.15,6.139,1.221" /></g><g id="i10" transform="matrix(1,0,0,1,60.392,19.016)"><path fill="#e75f35" d="M8.896,8.841C8.896,8.841,-8.895,8.841,-8.895,8.841C-14.624,8.841,-19.519,5.512,-20.477,0.963C-20.477,0.963,-21.104,-2.019,-21.104,-2.019C-21.856,-5.587,-18.444,-8.841,-13.951,-8.841C-13.951,-8.841,13.951,-8.841,13.951,-8.841C18.444,-8.841,21.856,-5.587,21.105,-2.019C21.105,-2.019,20.477,0.963,20.477,0.963C19.518,5.512,14.625,8.841,8.896,8.841Z" /></g><g id="i11" transform="matrix(1,0,0,1,60.88,12.461)"><path stroke-miterlimit="10" stroke-width="1" stroke="#353535" fill="#ffffff" d="M0,9.961C0,9.961,0,9.961,0,9.961C-4.476,9.961,-8.279,6.688,-8.945,2.261C-8.945,2.261,-9.887,-3.99,-9.887,-3.99C-10.36,-7.133,-7.926,-9.961,-4.748,-9.961C-4.748,-9.961,4.748,-9.961,4.748,-9.961C7.926,-9.961,10.36,-7.133,9.887,-3.99C9.887,-3.99,8.946,2.261,8.946,2.261C8.279,6.688,4.476,9.961,0,9.961Z" /></g><g id="i12" transform="matrix(1,0,0,1,20.344,24.98)"><path stroke-miterlimit="10" stroke-width="1" stroke="#2f3542" fill="#ffffff" d="M-5.34,6.706C-5.34,6.706,-5.714,1.211,-5.714,1.211C-5.714,1.211,-8.46,-2.98,-7.715,-5.727C-7.164,-7.76,-0.85,-8.868,2.395,-9.306C3.484,-9.454,4.51,-8.78,4.809,-7.723C4.809,-7.723,6.021,-3.445,6.021,-3.445C6.021,-3.445,7.465,-3.678,7.465,-3.678C7.465,-3.678,8.46,-0.835,5.674,0.796C3.693,1.956,2.855,2.049,2.855,2.049C2.855,2.049,1.645,7.172,1.645,7.172C1.645,7.172,-3.803,9.454,-5.34,6.706Z" /></g><g id="i13" transform="matrix(1,0,0,1,101.417,24.98)"><path stroke-miterlimit="10" stroke-width="1" stroke="#2f3542" fill="#ffffff" d="M5.341,6.706C5.341,6.706,5.714,1.211,5.714,1.211C5.714,1.211,8.461,-2.98,7.716,-5.727C7.165,-7.76,0.85,-8.868,-2.396,-9.306C-3.484,-9.454,-4.511,-8.78,-4.81,-7.723C-4.81,-7.723,-6.022,-3.445,-6.022,-3.445C-6.022,-3.445,-7.465,-3.678,-7.465,-3.678C-7.465,-3.678,-8.461,-0.835,-5.675,0.796C-3.694,1.956,-2.855,2.049,-2.855,2.049C-2.855,2.049,-1.645,7.172,-1.645,7.172C-1.645,7.172,3.804,9.454,5.341,6.706Z" /></g></g></g></g></g></g></g></g></g></g></g></g><g id="i16"><g transform="translate(170.5,15)"><animateTransform repeatCount="indefinite" type="translate" attributeName="transform" dur="4.017s" begin="0s" calcMode="spline" values="170.5 15; 170.5 235; -40.479 387.13; -39.75 536.75; -39.75 536.75" keyTimes="0; 0.348249; 0.759992; 0.996847; 1" keySplines="0 0 1 1; 0 0 1 1; 0 0 1 1; 0 0 1 1" fill="freeze" /><g transform="scale(1,1) translate(-1000,-1000)"><g id="i19"><g transform="translate(980.695,1145.924)"><animateTransform repeatCount="indefinite" type="translate" attributeName="transform" dur="4.017s" begin="0s" calcMode="spline" values="980.695 1145.924; 980.923 927.615; 1191.195 746.716; 1190.966 624.632; 1190.966 624.632" keyTimes="0; 0.348897; 0.755942; 0.996847; 1" keySplines="0 0 1 1; 0 0 1 1; 0 0 1 1; 0 0 1 1" fill="freeze" /><g transform="rotate(0)"><animateTransform repeatCount="indefinite" type="rotate" attributeName="transform" dur="4.017s" begin="0s" calcMode="spline" values="0; 0; 50; 50; 0; 0" keyTimes="0; 0.265826; 0.481805; 0.639643; 0.855631; 1" keySplines="0 0 1 1; 0.333 0 0.2 1; 0.333 0 0.667 1; 0.333 0 0.667 1; 0 0 1 1" fill="freeze" /><g transform="scale(0.56,0.56) translate(-29.857,-72.138)"><g transform="matrix(1,0,0,1,-17.262,7.177)" id="i22"><g id="i12" transform="matrix(1,0,0,1,47.119,61.925)"><path fill="#2f3542" d="M0,24.255C0,24.255,0,24.255,0,24.255C-13.191,24.255,-24.262,13.875,-25.673,0.183C-25.673,0.183,-27.253,-15.155,-27.253,-15.155C-27.754,-20.016,-24.106,-24.255,-19.424,-24.255C-19.424,-24.255,19.424,-24.255,19.424,-24.255C24.107,-24.255,27.755,-20.016,27.254,-15.155C27.254,-15.155,25.673,0.183,25.673,0.183C24.262,13.875,13.191,24.255,0,24.255Z" /></g><g id="i13" transform="matrix(1,0,0,1,47.22,41.701)"><path d="M37.204,-40.888C37.204,-40.888,35.389,-22.5,33.601,-19.606C31.814,-16.713,24.41,-8.883,20.58,-7.521C16.75,-6.159,-0.101,-2.075,-0.101,-2.075C-0.101,-2.075,-16.952,-6.159,-20.782,-7.521C-24.611,-8.883,-32.016,-16.713,-33.803,-19.606C-35.59,-22.5,-37.317,-41.051,-37.317,-41.051C-37.317,-41.051,-46.97,-40.099,-46.97,-40.099C-46.97,-40.099,-44.782,-22.244,-41.888,-15.011C-38.995,-7.777,-19.931,8.734,-19.931,8.734C-19.931,8.734,-16.074,32.053,-16.074,32.053C-14.571,36.522,-10.578,38.82,-6.96,40C-2.515,41.451,2.313,41.451,6.758,40C10.376,38.82,14.369,36.522,15.872,32.053C15.872,32.053,19.729,8.734,19.729,8.734C19.729,8.734,38.793,-7.777,41.686,-15.011C44.58,-22.244,46.97,-41.451,46.97,-41.451C46.97,-41.451,37.204,-40.888,37.204,-40.888Z" fill="#e75f35"><animate repeatCount="indefinite" attributeName="d" dur="4.017s" begin="0s" calcMode="spline" values="M37.204,-40.888C37.204,-40.888,35.389,-22.5,33.601,-19.606C31.814,-16.713,24.41,-8.883,20.58,-7.521C16.75,-6.159,-0.101,-2.075,-0.101,-2.075C-0.101,-2.075,-16.952,-6.159,-20.782,-7.521C-24.611,-8.883,-32.016,-16.713,-33.803,-19.606C-35.59,-22.5,-37.317,-41.051,-37.317,-41.051C-37.317,-41.051,-46.97,-40.099,-46.97,-40.099C-46.97,-40.099,-44.782,-22.244,-41.888,-15.011C-38.995,-7.777,-19.931,8.734,-19.931,8.734C-19.931,8.734,-16.074,32.053,-16.074,32.053C-14.571,36.522,-10.578,38.82,-6.96,40C-2.515,41.451,2.313,41.451,6.758,40C10.376,38.82,14.369,36.522,15.872,32.053C15.872,32.053,19.729,8.734,19.729,8.734C19.729,8.734,38.793,-7.777,41.686,-15.011C44.58,-22.244,46.97,-41.451,46.97,-41.451C46.97,-41.451,37.204,-40.888,37.204,-40.888Z; M37.204,-40.888C37.204,-40.888,35.389,-22.5,33.601,-19.606C31.814,-16.713,24.41,-8.883,20.58,-7.521C16.75,-6.159,-0.101,-2.075,-0.101,-2.075C-0.101,-2.075,-16.952,-6.159,-20.782,-7.521C-24.611,-8.883,-32.016,-16.713,-33.803,-19.606C-35.59,-22.5,-37.317,-41.051,-37.317,-41.051C-37.317,-41.051,-46.97,-40.099,-46.97,-40.099C-46.97,-40.099,-44.782,-22.244,-41.888,-15.011C-38.995,-7.777,-19.931,8.734,-19.931,8.734C-19.931,8.734,-16.074,32.053,-16.074,32.053C-14.571,36.522,-10.578,38.82,-6.96,40C-2.515,41.451,2.313,41.451,6.758,40C10.376,38.82,14.369,36.522,15.872,32.053C15.872,32.053,19.729,8.734,19.729,8.734C19.729,8.734,38.793,-7.777,41.686,-15.011C44.58,-22.244,46.97,-41.451,46.97,-41.451C46.97,-41.451,37.204,-40.888,37.204,-40.888Z; M35.095,-37.455C35.095,-37.455,34.135,-20.822,32.347,-17.928C30.56,-15.035,24.41,-8.883,20.58,-7.521C16.75,-6.159,-0.101,-2.075,-0.101,-2.075C-0.101,-2.075,-16.952,-6.159,-20.782,-7.521C-24.611,-8.883,-30.982,-18.988,-32.769,-21.881C-34.556,-24.775,-37.014,-45.279,-37.014,-45.279C-37.014,-45.279,-48.173,-45.54,-48.173,-45.54C-48.173,-45.54,-44.8,-24.371,-41.906,-17.138C-39.013,-9.904,-19.931,8.734,-19.931,8.734C-19.931,8.734,-16.074,32.053,-16.074,32.053C-14.571,36.522,-10.578,38.82,-6.96,40C-2.515,41.451,2.313,41.451,6.758,40C10.376,38.82,14.369,36.522,15.872,32.053C15.872,32.053,19.729,8.734,19.729,8.734C19.729,8.734,38.649,-5.58,41.542,-12.814C44.436,-20.047,45.947,-36.488,45.947,-36.488C45.947,-36.488,35.095,-37.455,35.095,-37.455Z; M35.095,-37.455C35.095,-37.455,34.135,-20.822,32.347,-17.928C30.56,-15.035,24.41,-8.883,20.58,-7.521C16.75,-6.159,-0.101,-2.075,-0.101,-2.075C-0.101,-2.075,-16.952,-6.159,-20.782,-7.521C-24.611,-8.883,-30.982,-18.988,-32.769,-21.881C-34.556,-24.775,-37.014,-45.279,-37.014,-45.279C-37.014,-45.279,-48.173,-45.54,-48.173,-45.54C-48.173,-45.54,-44.8,-24.371,-41.906,-17.138C-39.013,-9.904,-19.931,8.734,-19.931,8.734C-19.931,8.734,-16.074,32.053,-16.074,32.053C-14.571,36.522,-10.578,38.82,-6.96,40C-2.515,41.451,2.313,41.451,6.758,40C10.376,38.82,14.369,36.522,15.872,32.053C15.872,32.053,19.729,8.734,19.729,8.734C19.729,8.734,38.649,-5.58,41.542,-12.814C44.436,-20.047,45.947,-36.488,45.947,-36.488C45.947,-36.488,35.095,-37.455,35.095,-37.455Z; M37.204,-40.888C37.204,-40.888,35.389,-22.5,33.601,-19.606C31.814,-16.713,24.41,-8.883,20.58,-7.521C16.75,-6.159,-0.101,-2.075,-0.101,-2.075C-0.101,-2.075,-16.952,-6.159,-20.782,-7.521C-24.611,-8.883,-32.016,-16.713,-33.803,-19.606C-35.59,-22.5,-37.317,-41.051,-37.317,-41.051C-37.317,-41.051,-46.97,-40.099,-46.97,-40.099C-46.97,-40.099,-44.782,-22.244,-41.888,-15.011C-38.995,-7.777,-19.931,8.734,-19.931,8.734C-19.931,8.734,-16.074,32.053,-16.074,32.053C-14.571,36.522,-10.578,38.82,-6.96,40C-2.515,41.451,2.313,41.451,6.758,40C10.376,38.82,14.369,36.522,15.872,32.053C15.872,32.053,19.729,8.734,19.729,8.734C19.729,8.734,38.793,-7.777,41.686,-15.011C44.58,-22.244,46.97,-41.451,46.97,-41.451C46.97,-41.451,37.204,-40.888,37.204,-40.888Z; M37.204,-40.888C37.204,-40.888,35.389,-22.5,33.601,-19.606C31.814,-16.713,24.41,-8.883,20.58,-7.521C16.75,-6.159,-0.101,-2.075,-0.101,-2.075C-0.101,-2.075,-16.952,-6.159,-20.782,-7.521C-24.611,-8.883,-32.016,-16.713,-33.803,-19.606C-35.59,-22.5,-37.317,-41.051,-37.317,-41.051C-37.317,-41.051,-46.97,-40.099,-46.97,-40.099C-46.97,-40.099,-44.782,-22.244,-41.888,-15.011C-38.995,-7.777,-19.931,8.734,-19.931,8.734C-19.931,8.734,-16.074,32.053,-16.074,32.053C-14.571,36.522,-10.578,38.82,-6.96,40C-2.515,41.451,2.313,41.451,6.758,40C10.376,38.82,14.369,36.522,15.872,32.053C15.872,32.053,19.729,8.734,19.729,8.734C19.729,8.734,38.793,-7.777,41.686,-15.011C44.58,-22.244,46.97,-41.451,46.97,-41.451C46.97,-41.451,37.204,-40.888,37.204,-40.888Z; M37.799,-44.304C37.799,-44.304,35.809,-24.093,34.021,-21.199C32.234,-18.306,24.41,-8.883,20.58,-7.521C16.75,-6.159,-0.101,-2.075,-0.101,-2.075C-0.101,-2.075,-16.952,-6.159,-20.782,-7.521C-24.611,-8.883,-30.924,-14.776,-32.711,-17.669C-34.498,-20.563,-35.351,-36.617,-35.351,-36.617C-35.351,-36.617,-45.456,-35.018,-45.456,-35.018C-45.456,-35.018,-44.158,-20.133,-41.264,-12.9C-38.371,-5.666,-19.931,8.734,-19.931,8.734C-19.931,8.734,-16.074,32.053,-16.074,32.053C-14.571,36.522,-10.578,38.82,-6.96,40C-2.515,41.451,2.313,41.451,6.758,40C10.376,38.82,14.369,36.522,15.872,32.053C15.872,32.053,19.729,8.734,19.729,8.734C19.729,8.734,38.555,-10.138,41.448,-17.372C44.342,-24.605,47.273,-46.515,47.273,-46.515C47.273,-46.515,37.799,-44.304,37.799,-44.304Z; M37.799,-44.304C37.799,-44.304,35.809,-24.093,34.021,-21.199C32.234,-18.306,24.41,-8.883,20.58,-7.521C16.75,-6.159,-0.101,-2.075,-0.101,-2.075C-0.101,-2.075,-16.952,-6.159,-20.782,-7.521C-24.611,-8.883,-30.924,-14.776,-32.711,-17.669C-34.498,-20.563,-35.351,-36.617,-35.351,-36.617C-35.351,-36.617,-45.456,-35.018,-45.456,-35.018C-45.456,-35.018,-44.158,-20.133,-41.264,-12.9C-38.371,-5.666,-19.931,8.734,-19.931,8.734C-19.931,8.734,-16.074,32.053,-16.074,32.053C-14.571,36.522,-10.578,38.82,-6.96,40C-2.515,41.451,2.313,41.451,6.758,40C10.376,38.82,14.369,36.522,15.872,32.053C15.872,32.053,19.729,8.734,19.729,8.734C19.729,8.734,38.555,-10.138,41.448,-17.372C44.342,-24.605,47.273,-46.515,47.273,-46.515C47.273,-46.515,37.799,-44.304,37.799,-44.304Z; M37.204,-40.888C37.204,-40.888,35.389,-22.5,33.601,-19.606C31.814,-16.713,24.41,-8.883,20.58,-7.521C16.75,-6.159,-0.101,-2.075,-0.101,-2.075C-0.101,-2.075,-16.952,-6.159,-20.782,-7.521C-24.611,-8.883,-32.016,-16.713,-33.803,-19.606C-35.59,-22.5,-37.317,-41.051,-37.317,-41.051C-37.317,-41.051,-46.97,-40.099,-46.97,-40.099C-46.97,-40.099,-44.782,-22.244,-41.888,-15.011C-38.995,-7.777,-19.931,8.734,-19.931,8.734C-19.931,8.734,-16.074,32.053,-16.074,32.053C-14.571,36.522,-10.578,38.82,-6.96,40C-2.515,41.451,2.313,41.451,6.758,40C10.376,38.82,14.369,36.522,15.872,32.053C15.872,32.053,19.729,8.734,19.729,8.734C19.729,8.734,38.793,-7.777,41.686,-15.011C44.58,-22.244,46.97,-41.451,46.97,-41.451C46.97,-41.451,37.204,-40.888,37.204,-40.888Z; M37.204,-40.888C37.204,-40.888,35.389,-22.5,33.601,-19.606C31.814,-16.713,24.41,-8.883,20.58,-7.521C16.75,-6.159,-0.101,-2.075,-0.101,-2.075C-0.101,-2.075,-16.952,-6.159,-20.782,-7.521C-24.611,-8.883,-32.016,-16.713,-33.803,-19.606C-35.59,-22.5,-37.317,-41.051,-37.317,-41.051C-37.317,-41.051,-46.97,-40.099,-46.97,-40.099C-46.97,-40.099,-44.782,-22.244,-41.888,-15.011C-38.995,-7.777,-19.931,8.734,-19.931,8.734C-19.931,8.734,-16.074,32.053,-16.074,32.053C-14.571,36.522,-10.578,38.82,-6.96,40C-2.515,41.451,2.313,41.451,6.758,40C10.376,38.82,14.369,36.522,15.872,32.053C15.872,32.053,19.729,8.734,19.729,8.734C19.729,8.734,38.793,-7.777,41.686,-15.011C44.58,-22.244,46.97,-41.451,46.97,-41.451C46.97,-41.451,37.204,-40.888,37.204,-40.888Z" keyTimes="0; 0.244813; 0.298755; 0.356846; 0.419087; 0.618257; 0.672199; 0.730291; 0.792531; 1" keySplines="0 0 1 1; 0.333 0 0.667 1; 0.333 0 0.667 1; 0.333 0 0.667 1; 0.333 0 0.667 1; 0.333 0 0.667 1; 0.333 0 0.667 1; 0.333 0 0.667 1; 0 0 1 1" fill="freeze" /></path></g></g></g></g></g></g></g></g></g><g id="i16"><g transform="translate(170.5,15)"><animateTransform repeatCount="indefinite" type="translate" attributeName="transform" dur="4.017s" begin="0s" calcMode="spline" values="170.5 15; 170.5 235; -40.479 387.13; -39.75 536.75; -39.75 536.75" keyTimes="0; 0.348249; 0.759992; 0.996847; 1" keySplines="0 0 1 1; 0 0 1 1; 0 0 1 1; 0 0 1 1" fill="freeze" /><g transform="scale(1,1) translate(-1000,-1000)"><g id="i19"><g transform="translate(980.695,1145.924)"><animateTransform repeatCount="indefinite" type="translate" attributeName="transform" dur="4.017s" begin="0s" calcMode="spline" values="980.695 1145.924; 980.923 927.615; 1191.195 746.716; 1190.966 624.632; 1190.966 624.632" keyTimes="0; 0.348897; 0.755942; 0.996847; 1" keySplines="0 0 1 1; 0 0 1 1; 0 0 1 1; 0 0 1 1" fill="freeze" /><g transform="rotate(0)"><animateTransform repeatCount="indefinite" type="rotate" attributeName="transform" dur="4.017s" begin="0s" calcMode="spline" values="0; 0; 50; 50; 0; 0" keyTimes="0; 0.265826; 0.481805; 0.639643; 0.855631; 1" keySplines="0 0 1 1; 0.333 0 0.2 1; 0.333 0 0.667 1; 0.333 0 0.667 1; 0 0 1 1" fill="freeze" /><g transform="scale(0.56,0.56) translate(-29.857,-72.138)"><g id="i23"><g transform="translate(28.964,47.85)"><g transform="rotate(0)"><animateTransform repeatCount="indefinite" type="rotate" attributeName="transform" dur="4.017s" begin="0s" calcMode="spline" values="0; 0; 11; 11; 0; 0; -11; -11; 0; 0" keyTimes="0; 0.236515; 0.290457; 0.348547; 0.410788; 0.609958; 0.6639; 0.721992; 0.784232; 1" keySplines="0 0 1 1; 0.333 0 0.667 1; 0.333 0 0.667 1; 0.333 0 0.667 1; 0.164 0 0.833 1; 0.333 0 0.667 1; 0.333 0 0.667 1; 0.333 0 0.667 1; 0 0 1 1" fill="freeze" /><g transform="scale(1,1) translate(-18.259,-34.315)"><g id="i12" transform="matrix(1,0,0,1,19.13,8.968)"><path fill="#e75f35" d="M2.746,-8.718C2.746,-8.718,-2.745,-8.718,-2.745,-8.718C-9.65,-8.718,-15.247,-3.12,-15.247,3.784C-15.247,3.784,-15.247,8.718,-15.247,8.718C-15.247,8.718,15.247,8.718,15.247,8.718C15.247,8.718,15.247,3.784,15.247,3.784C15.247,-3.12,9.65,-8.718,2.746,-8.718Z" /></g><g id="i13" transform="matrix(1,0,0,1,19.152,24.64)"><path stroke-miterlimit="10" stroke-width="1" stroke="#2f3542" fill="#ffffff" d="M16.652,0C16.652,9.61,9.196,17.401,0,17.401C-9.197,17.401,-16.652,9.61,-16.652,0C-16.652,-9.61,-9.197,-17.401,0,-17.401C9.196,-17.401,16.652,-9.61,16.652,0Z" /></g></g></g></g></g></g></g></g></g></g></g></g></svg>